<svg width="103" height="112" viewBox="0 0 103 112" fill="none" xmlns="http://www.w3.org/2000/svg">
<path d="M76.14 53.9C76.14 53.9 73.34 51.19 78.61 44.51C83.87 37.83 76.14 24.68 76.14 24.68C76.14 24.68 76.63 19.26 71.25 9.45C66.16 0.169997 52.5599 0 51.0999 0C49.6499 0 36.04 0.169997 30.95 9.45C25.57 19.26 26.06 24.68 26.06 24.68C26.06 24.68 18.3399 37.83 23.5999 44.51C28.8599 51.19 26.06 53.9 26.06 53.9C26.06 53.9 18.8299 61 21.7599 65.79C24.6899 70.59 27.21 69.17 26.06 74.68C24.91 80.19 36.5399 79.77 37.4099 79.15C38.1299 78.64 47.65 77.43 51.09 77C54.53 77.42 64.06 78.63 64.77 79.15C65.65 79.78 77.27 80.19 76.12 74.68C74.97 69.17 77.49 70.59 80.42 65.79C83.35 60.99 76.12 53.9 76.12 53.9H76.14Z" fill="#B78834"/>
<path d="M98.49 92.27C96.35 80.55 89.87 76.8799 80.54 75.2299C71.21 73.5799 63.51 72.89 61.76 67.35C60.01 61.81 59.82 56.2 59.82 56.2H42.38C42.38 56.2 42.19 61.81 40.44 67.35C38.69 72.89 30.99 73.5899 21.66 75.2299C12.33 76.8699 5.84999 80.54 3.70999 92.27C2.15999 100.74 0 111.73 0 111.73H102.19C102.19 111.73 100.02 100.74 98.48 92.27H98.49Z" fill="#FCCCA6"/>
<path d="M60.83 63.7599C59.95 59.6199 59.83 56.2 59.83 56.2H42.39C42.39 56.2 42.22 61.25 40.71 66.49C42.52 66.78 44.4 66.9299 46.33 66.9299C51.68 66.9299 56.64 65.7599 60.83 63.7599Z" fill="#DDBA98"/>
<path d="M3.71979 92.2699C2.16979 100.74 0.00976562 111.73 0.00976562 111.73H102.2C102.2 111.73 100.03 100.74 98.4898 92.2699C96.3498 80.5499 89.8698 76.8799 80.5398 75.2299C79.9798 75.1299 79.4198 75.0299 78.8598 74.9399C76.7398 77.7399 71.9598 83.1999 66.3998 83.9599C59.4798 84.8999 54.4398 86.9999 51.0998 89.1699C47.7598 86.9999 42.7198 84.9099 35.7998 83.9599C30.2398 83.1999 25.4598 77.7399 23.3398 74.9399C22.7898 75.0299 22.2298 75.1299 21.6598 75.2299C12.3298 76.8699 5.84978 80.5399 3.70978 92.2699H3.71979Z" fill="#9F529D"/>
<path d="M34.9597 30.99C34.9597 30.99 28.3097 24.88 25.3897 30.99C22.4697 37.11 33.6297 48 37.0797 46.14C40.5397 44.28 34.9597 30.99 34.9597 30.99Z" fill="#DDBA98"/>
<path d="M67.2499 30.99C67.2499 30.99 73.8999 24.88 76.8199 30.99C79.7399 37.11 68.5799 48 65.1299 46.14C61.6699 44.28 67.2499 30.99 67.2499 30.99Z" fill="#DDBA98"/>
<path d="M70.4396 18.5C69.9096 2.02001 54.0996 2.01001 51.0996 2.01001C48.0996 2.01001 32.2896 2.02001 31.7596 18.5C31.2296 34.98 32.0296 46.94 35.4796 52.25C38.8996 57.51 47.0596 63.8 51.0996 63.8C55.1396 63.8 63.2996 57.51 66.7196 52.25C70.1796 46.93 70.9696 34.98 70.4396 18.5Z" fill="#FCCCA6"/>
<path d="M72.1197 19.79C72.1197 18.71 72.1197 17.98 72.1197 17.98C71.2897 9.28 66.7397 0.0100098 51.1097 0.0100098C35.4797 0.0100098 30.9497 9.24001 30.1097 17.92C28.6697 23.52 30.5197 29.87 30.5197 29.87C37.6997 26.3 43.4297 19.91 47.0397 15.06C47.1197 15.04 47.1997 15.01 47.2697 14.99C43.6997 21.47 36.6397 29 36.6397 29C36.6397 29 41.6697 29 50.1997 23.31C53.4497 21.14 55.4497 18.75 56.6997 16.61C56.9997 18.55 57.7097 20.71 59.2797 22.36C62.9997 26.3 64.0897 26.51 64.0897 26.51C64.0897 26.51 63.5597 23.1 62.8897 19.58C63.6797 21.12 64.5897 22.52 65.6097 23.55C69.9797 27.93 70.3097 33.07 70.3097 33.07C70.3097 33.07 73.1497 29.71 72.1097 19.79H72.1197Z" fill="#CD9839"/>
<path d="M31.4996 15.85C31.4996 9.81001 36.4196 4.89001 42.4596 4.89001H59.7496C65.7896 4.89001 70.7096 9.80001 70.7096 15.85V27.88H73.8396V15.85C73.8396 8.08001 67.5196 1.76001 59.7496 1.76001H42.4596C34.6896 1.76001 28.3696 8.08001 28.3696 15.85V27.88H31.4996V15.85Z" fill="#A69CC9"/>
<path d="M28.49 26.02C23.66 26.02 19.75 29.93 19.75 34.76C19.75 39.59 23.66 43.5 28.49 43.5H28.85V26.03H28.49V26.02Z" fill="#A69CC9"/>
<path d="M30.9498 26.02H28.0298V43.49H30.9498C31.6098 43.49 32.1498 42.95 32.1498 42.29V27.21C32.1498 26.55 31.6098 26.01 30.9498 26.01V26.02Z" fill="#7D6EA6"/>
<path d="M73.7096 26.02C78.5396 26.02 82.4496 29.93 82.4496 34.76C82.4496 39.59 78.5396 43.5 73.7096 43.5H73.3496V26.03H73.7096V26.02Z" fill="#A69CC9"/>
<path d="M71.26 26.02H74.1801V43.49H71.26C70.6 43.49 70.0601 42.95 70.0601 42.29V27.21C70.0601 26.55 70.6 26.01 71.26 26.01V26.02Z" fill="#7D6EA6"/>
<path d="M47.8197 54.27H47.7597C47.6797 54.27 45.7597 54.17 39.1397 53.34C31.7197 52.41 29.1697 41.98 29.0697 41.53C28.9097 40.86 29.3297 40.18 29.9997 40.03C30.6697 39.87 31.3397 40.29 31.5097 40.96C31.5297 41.05 33.7597 50.14 39.4597 50.86C45.9297 51.67 47.8697 51.77 47.8797 51.77C48.5697 51.8 49.1097 52.39 49.0697 53.08C49.0397 53.75 48.4897 54.27 47.8197 54.27Z" fill="#7D6EA6"/>
<path d="M50.89 50.7H46.4099C45.5981 50.7 44.9399 51.3581 44.9399 52.17V53.3199C44.9399 54.1318 45.5981 54.7899 46.4099 54.7899H50.89C51.7018 54.7899 52.36 54.1318 52.36 53.3199V52.17C52.36 51.3581 51.7018 50.7 50.89 50.7Z" fill="#A69CC9"/>
</svg>
