<svg width="103" height="113" viewBox="0 0 103 113" fill="none" xmlns="http://www.w3.org/2000/svg">
<path d="M98.49 93.03C96.35 81.31 89.87 77.64 80.54 75.99C71.21 74.34 63.51 73.65 61.76 68.11C60.01 62.57 59.82 56.96 59.82 56.96H42.38C42.38 56.96 42.19 62.57 40.44 68.11C38.69 73.65 30.99 74.35 21.66 75.99C12.33 77.63 5.85 81.3 3.71 93.03C2.16 101.5 0 112.49 0 112.49H102.19C102.19 112.49 100.03 101.5 98.48 93.03H98.49Z" fill="#FCCCA6"/>
<path d="M60.83 64.52C59.94 60.39 59.83 56.96 59.83 56.96H42.39C42.39 56.96 42.22 62 40.71 67.25C42.52 67.54 44.4 67.7 46.33 67.7C51.68 67.7 56.64 66.53 60.83 64.53V64.52Z" fill="#DDBA98"/>
<path d="M3.71976 93.03C2.16976 101.5 0.00976562 112.49 0.00976562 112.49H37.6798C35.5198 102.58 31.7998 80.86 30.6898 74.36C27.9998 74.95 24.9398 75.42 21.6598 76C12.3298 77.64 5.84977 81.31 3.70977 93.04L3.71976 93.03Z" fill="#5E83BC"/>
<path d="M33.27 73.54L40.71 112.49H51.1L50.48 78.86L37.47 71.89L33.27 73.54Z" fill="#E6EDF3"/>
<path d="M42.4997 112.49H35.3697C35.3697 112.49 28.9697 96.23 28.7997 94.83C28.6297 93.43 31.4797 85.92 31.4797 85.92C31.4797 85.92 26.5297 83.95 26.4497 82.52C26.3697 81.08 27.7197 74.9599 27.7197 74.9599L34.4697 73.0699L42.4897 112.49H42.4997Z" fill="#506FA0"/>
<path d="M98.4898 93.03C100.03 101.5 102.2 112.49 102.2 112.49H64.5298C66.6798 102.58 70.4098 80.86 71.5198 74.36C74.2098 74.95 77.2698 75.42 80.5498 76C89.8798 77.64 96.3598 81.31 98.4998 93.04L98.4898 93.03Z" fill="#5E83BC"/>
<path d="M68.9499 73.54L61.5099 112.49H51.1099L51.7299 78.86L64.7499 71.89L68.9499 73.54Z" fill="#E6EDF3"/>
<path d="M59.7197 112.49H66.8497C66.8497 112.49 73.2497 96.23 73.4197 94.83C73.5897 93.43 70.7397 85.92 70.7397 85.92C70.7397 85.92 75.6897 83.95 75.7597 82.52C75.8397 81.08 74.4897 74.9599 74.4897 74.9599L67.7397 73.0699L59.7197 112.49Z" fill="#506FA0"/>
<path d="M54.9099 95.1399C54.0699 90.2399 53.1199 87.7299 53.1199 87.7299C53.1199 87.7299 51.8799 87.4199 51.1099 87.4199C50.3399 87.4199 49.0999 87.7299 49.0999 87.7299C49.0999 87.7299 48.1499 90.2299 47.3099 95.1399C46.4699 100.04 45.6299 112.49 45.6299 112.49H56.5899C56.5899 112.49 55.7499 100.04 54.9099 95.1399Z" fill="#963B39"/>
<path d="M53.11 87.7299C53.11 87.7299 51.87 87.4199 51.1 87.4199C50.33 87.4199 49.09 87.7299 49.09 87.7299C49.09 87.7299 48.46 90.3399 47.77 92.9199C48.84 93.0699 49.95 93.1599 51.1 93.1599C52.25 93.1599 53.36 93.0799 54.43 92.9199C53.74 90.3399 53.11 87.7299 53.11 87.7299Z" fill="#833433"/>
<path d="M51.1101 78.55C49.0201 78.55 45.6501 80.01 45.6301 81.4C45.6101 83.04 47.2501 88.05 48.9301 88.26C49.7401 88.36 50.5201 88.36 51.1101 88.34C51.7001 88.36 52.4801 88.36 53.2901 88.26C54.9701 88.05 56.6101 83.05 56.5901 81.4C56.5701 80.01 53.2001 78.55 51.1101 78.55Z" fill="#963B39"/>
<path d="M39.94 67.7L51.73 78.86L40.47 87.3099L33.27 73.5399L39.94 67.7Z" fill="#F2F9FF"/>
<path d="M62.27 67.7L50.48 78.86L61.75 87.3099L68.95 73.5399L62.27 67.7Z" fill="#F2F9FF"/>
<path d="M35.9098 33.0201C35.9098 33.0201 29.6598 27.2401 26.9098 33.0201C24.1598 38.8001 34.6598 49.1 37.9098 47.34C41.1598 45.58 35.9098 33.0201 35.9098 33.0201Z" fill="#DDBA98"/>
<path d="M66.2998 33.0201C66.2998 33.0201 72.5498 27.2401 75.2998 33.0201C78.0498 38.8001 67.5498 49.1 64.2998 47.34C61.0498 45.58 66.2998 33.0201 66.2998 33.0201Z" fill="#DDBA98"/>
<path d="M69.3 21.21C68.8 5.62999 53.93 5.62 51.1 5.62C48.2701 5.62 33.4 5.63999 32.9 21.21C32.4 36.79 33.15 48.09 36.4 53.12C39.62 58.09 47.3 60.73 51.09 60.73C54.88 60.73 62.57 58.1 65.78 53.12C69.03 48.09 69.78 36.79 69.28 21.21H69.3Z" fill="#FCCCA6"/>
<path d="M68.74 5.73999C65.79 2.13999 57 0 51.1 0C45.2 0 36.41 2.13999 33.46 5.73999C28.21 12.15 31.52 36.33 32.49 37.57C33.46 38.81 31.71 34.68 34.83 30.45C37.94 26.22 37.62 13.39 37.62 13.39C37.62 13.39 40.28 18.65 48.32 18.77C50.98 18.81 56.35 17.83 58.37 16.87C59.38 16.7 60.26 16.66 60.96 16.9C63.29 17.71 65.51 19.39 65.51 19.39C65.51 19.39 64.27 26.22 67.38 30.45C70.49 34.68 68.74 38.81 69.71 37.57C70.68 36.33 73.99 12.14 68.74 5.73999Z" fill="#8B482E"/>
<path d="M31.5099 16.5299C31.5099 10.4899 36.4199 5.56995 42.4699 5.56995H59.7599C65.7999 5.56995 70.7199 10.4799 70.7199 16.5299V28.5599H73.8499V16.5299C73.8499 8.75994 67.5299 2.43994 59.7599 2.43994H42.4699C34.6999 2.43994 28.3799 8.75994 28.3799 16.5299V28.5599H31.5099V16.5299Z" fill="#3FA9B7"/>
<path d="M28.4998 26.6899C23.6798 26.6899 19.7598 30.5999 19.7598 35.4299C19.7598 40.2599 23.6698 44.17 28.4998 44.17H28.8598V26.6899H28.4998Z" fill="#3FA9B7"/>
<path d="M30.9498 26.6899H28.0298V44.17H30.9498C31.6098 44.17 32.1498 43.6299 32.1498 42.9699V27.89C32.1498 27.23 31.6098 26.6899 30.9498 26.6899Z" fill="#3F7E8D"/>
<path d="M73.7199 26.6899C78.5499 26.6899 82.4599 30.5999 82.4599 35.4299C82.4599 40.2599 78.5499 44.17 73.7199 44.17H73.3599V26.6899H73.7199Z" fill="#3FA9B7"/>
<path d="M71.2601 26.6899H74.1801V44.17H71.2601C70.6001 44.17 70.0601 43.6299 70.0601 42.9699V27.89C70.0601 27.23 70.6001 26.6899 71.2601 26.6899Z" fill="#3F7E8D"/>
<path d="M47.8299 54.94H47.7699C47.6899 54.94 45.7699 54.84 39.1499 54.01C31.7299 53.08 29.1799 42.65 29.0799 42.21C28.9199 41.54 29.3399 40.86 30.0099 40.7C30.6799 40.54 31.3599 40.96 31.5199 41.63C31.5399 41.72 33.7699 50.81 39.4699 51.53C45.9399 52.34 47.8699 52.44 47.8899 52.44C48.5799 52.47 49.1099 53.06 49.0799 53.75C49.0499 54.42 48.4899 54.94 47.8299 54.94Z" fill="#3F7E8D"/>
<path d="M50.8997 51.37H46.4197C45.6078 51.37 44.9497 52.0281 44.9497 52.84V53.99C44.9497 54.8018 45.6078 55.46 46.4197 55.46H50.8997C51.7116 55.46 52.3697 54.8018 52.3697 53.99V52.84C52.3697 52.0281 51.7116 51.37 50.8997 51.37Z" fill="#3FA9B7"/>
<g style="mix-blend-mode:multiply">
<path d="M98.4898 93.03C96.3498 81.31 89.8698 77.64 80.5398 75.99C79.8098 75.86 79.0898 75.74 78.3798 75.62C76.9998 75.39 75.6798 75.16 74.3998 74.93L68.7098 73.34L62.2598 67.7L61.7698 68.16C61.7698 68.16 61.7598 68.13 61.7498 68.12C61.3698 66.9 61.0598 65.69 60.8098 64.53C60.2498 61.89 59.9898 59.54 59.8798 58.18C62.2298 56.93 64.4098 55.24 65.7798 53.13C66.8198 51.52 67.6098 49.25 68.1798 46.41C69.0998 45.82 70.0698 45.04 70.9898 44.13C71.0698 44.15 71.1498 44.18 71.2398 44.18H74.1598V44.16C78.7698 43.92 82.4398 40.12 82.4398 35.45C82.4398 30.78 78.7698 26.98 74.1598 26.74V26.72H73.8198V16.56C73.8198 12.14 71.7698 8.19005 68.5698 5.61005C65.4998 2.11005 56.8998 0.0300293 51.0898 0.0300293V112.52H102.18C102.18 112.52 100.02 101.53 98.4698 93.06L98.4898 93.03Z" fill="#DBDBDB"/>
</g>
</svg>
