<svg width="96" height="97" viewBox="0 0 96 97" fill="none" xmlns="http://www.w3.org/2000/svg">
<g clip-path="url(#clip0_277_7818)">
<path d="M48 0.769531C21.4928 0.769531 0 22.2624 0 48.7695C0 75.2767 21.4928 96.7695 48 96.7695C74.5072 96.7695 96 75.2767 96 48.7695C96 22.2624 74.5122 0.769531 48 0.769531ZM48 95.7586C22.0539 95.7586 1.02106 74.7207 1.02106 48.7695C1.02106 22.8184 22.0539 1.79059 48 1.79059C73.9461 1.79059 94.9789 22.8234 94.9789 48.7695C94.9789 74.7156 73.9461 95.7485 48 95.7485V95.7586Z" fill="#00FBCE"/>
<path d="M42.7381 20.0939C43.1526 20.0939 43.4862 19.7603 43.4862 19.3458C43.4862 18.9313 43.1526 18.5977 42.7381 18.5977C42.3236 18.5977 41.99 18.9313 41.99 19.3458C41.99 19.7603 42.3236 20.0939 42.7381 20.0939Z" fill="white"/>
<path d="M65.5804 27.6509C65.9089 27.6509 66.1768 27.383 66.1768 27.0545C66.1768 26.7259 65.9089 26.458 65.5804 26.458C65.2518 26.458 64.9839 26.7259 64.9839 27.0545C64.9839 27.383 65.2518 27.6509 65.5804 27.6509Z" fill="white"/>
<path d="M30.3943 24.9318C30.6066 24.9318 30.7836 24.7599 30.7836 24.5425C30.7836 24.3252 30.6117 24.1533 30.3943 24.1533C30.177 24.1533 30.0051 24.3252 30.0051 24.5425C30.0051 24.7599 30.177 24.9318 30.3943 24.9318Z" fill="white"/>
<path d="M73.6074 53.8036C73.8348 53.8036 74.0219 53.6166 74.0219 53.3891C74.0219 53.1616 73.8348 52.9746 73.6074 52.9746C73.3799 52.9746 73.1929 53.1616 73.1929 53.3891C73.1929 53.6166 73.3799 53.8036 73.6074 53.8036Z" fill="white"/>
<path d="M22.054 37.9073C22.4129 37.9073 22.701 37.6192 22.701 37.2603C22.701 36.9014 22.4129 36.6133 22.054 36.6133C21.6951 36.6133 21.407 36.9014 21.407 37.2603C21.407 37.6192 21.6951 37.9073 22.054 37.9073Z" fill="white"/>
<path d="M73.1273 36.4914C73.3093 36.4914 73.4609 36.3398 73.4609 36.1578C73.4609 35.9759 73.3093 35.8242 73.1273 35.8242C72.9453 35.8242 72.7937 35.9759 72.7937 36.1578C72.7937 36.3398 72.9453 36.4914 73.1273 36.4914Z" fill="white"/>
<path d="M56.3253 21.1301C56.5073 21.1301 56.6589 20.9785 56.6589 20.7965C56.6589 20.6145 56.5073 20.4629 56.3253 20.4629C56.1433 20.4629 55.9917 20.6145 55.9917 20.7965C55.9917 20.9785 56.1433 21.1301 56.3253 21.1301Z" fill="white"/>
<path d="M20.851 50.5945C21.0633 50.5945 21.2351 50.4226 21.2351 50.2103C21.2351 49.998 21.0633 49.8262 20.851 49.8262C20.6387 49.8262 20.4668 49.998 20.4668 50.2103C20.4668 50.4226 20.6387 50.5945 20.851 50.5945Z" fill="white"/>
<path d="M75.1642 41.4051C75.4321 41.4051 75.6495 41.1877 75.6495 40.9198C75.6495 40.6519 75.4321 40.4346 75.1642 40.4346C74.8963 40.4346 74.679 40.6519 74.679 40.9198C74.679 41.1877 74.8963 41.4051 75.1642 41.4051Z" fill="white"/>
<path d="M16.5241 68.3164L15.3059 70.5911L15.5637 70.9853L17.4592 69.752L18.1921 70.8792L13.4154 73.9879L12.2275 72.1681C12.0759 71.9356 11.9596 71.6981 11.8585 71.4504C11.7625 71.2027 11.717 70.955 11.7119 70.7073C11.7069 70.4596 11.7726 70.2271 11.8838 69.9997C12.0001 69.7722 12.1972 69.5751 12.4702 69.3981C12.7937 69.1858 13.1222 69.0949 13.4558 69.1302C13.7894 69.1606 14.1079 69.3021 14.4061 69.5498L15.6344 66.9668L16.514 68.3215L16.5241 68.3164ZM13.2435 70.5203C13.1323 70.5961 13.0565 70.677 13.0161 70.768C12.9807 70.859 12.9605 70.955 12.9706 71.0611C12.9807 71.1572 13.006 71.2583 13.0565 71.3644C13.1071 71.4655 13.1525 71.5565 13.2132 71.6425L13.6176 72.2642L14.7296 71.5414L14.3758 70.9904C14.3101 70.8943 14.2393 70.8034 14.1584 70.7174C14.0776 70.6264 13.9916 70.5557 13.9007 70.5001C13.8097 70.4445 13.7086 70.4141 13.5923 70.4141C13.4761 70.4141 13.3648 70.4546 13.2486 70.5253H13.2435V70.5203Z" fill="white"/>
<path d="M10.2966 62.1044C10.711 61.9225 11.1154 61.8315 11.5198 61.8264C11.9242 61.8214 12.3033 61.8921 12.6571 62.0387C13.011 62.1853 13.3294 62.4077 13.6175 62.6958C13.9057 62.989 14.1331 63.3378 14.3151 63.7472C14.492 64.1567 14.5931 64.561 14.6133 64.9654C14.6335 65.3698 14.5779 65.754 14.4465 66.1129C14.31 66.4717 14.1078 66.7953 13.8298 67.0935C13.5518 67.3867 13.203 67.6242 12.7936 67.8062C12.3791 67.9882 11.9697 68.0792 11.5704 68.0842C11.171 68.0842 10.797 68.0135 10.4482 67.8669C10.1045 67.7152 9.78603 67.4928 9.50802 67.2047C9.23 66.9115 8.99749 66.5627 8.81551 66.1533C8.6386 65.7439 8.5375 65.3395 8.50717 64.93C8.4819 64.5206 8.52739 64.1415 8.65882 63.7877C8.79024 63.4338 8.98232 63.1103 9.25528 62.8172C9.52824 62.524 9.87701 62.2864 10.2915 62.1044H10.2966ZM10.888 63.4591C10.6605 63.5551 10.4684 63.6866 10.3016 63.8483C10.1399 64.0101 10.0135 64.1819 9.92756 64.374C9.84669 64.5661 9.80119 64.7733 9.80119 64.9958C9.80119 65.2182 9.85174 65.4355 9.94778 65.6579C10.0438 65.8803 10.1752 66.0623 10.337 66.2089C10.4987 66.3555 10.6757 66.4616 10.8779 66.5375C11.075 66.6082 11.2873 66.6386 11.5198 66.6234C11.7473 66.6082 11.9747 66.5526 12.1971 66.4515C12.4347 66.3504 12.6319 66.214 12.7987 66.0522C12.9655 65.8904 13.0918 65.7135 13.1778 65.5164C13.2637 65.3243 13.3092 65.1171 13.3092 64.8997C13.3092 64.6824 13.2586 64.465 13.1626 64.2426C13.0666 64.0202 12.9351 63.8382 12.7734 63.6916C12.6116 63.545 12.4347 63.4389 12.2275 63.3681C12.0303 63.2974 11.813 63.2721 11.5805 63.2822C11.3479 63.2923 11.1154 63.353 10.8779 63.4591H10.8829H10.888Z" fill="white"/>
<path d="M11.621 56.1446C11.8737 56.463 12.0608 56.8573 12.177 57.3274C12.2832 57.752 12.3135 58.1665 12.2629 58.5658C12.2124 58.9651 12.0911 59.324 11.9041 59.6627C11.717 59.9913 11.4542 60.2794 11.1307 60.522C10.8072 60.7646 10.4331 60.9365 9.99841 61.0477C9.55864 61.1539 9.13404 61.1842 8.73472 61.1185C8.33539 61.0528 7.98156 60.9163 7.65805 60.709C7.3396 60.4967 7.06665 60.2288 6.83918 59.9003C6.61172 59.5717 6.44491 59.1926 6.34382 58.768C6.24778 58.3737 6.21745 57.9744 6.26294 57.5599C6.30843 57.1454 6.42975 56.7865 6.64205 56.4883L7.77431 57.1657C7.63278 57.3325 7.54685 57.5346 7.51652 57.752C7.48619 57.9795 7.4963 58.1918 7.54685 58.4091C7.60751 58.6467 7.70355 58.8438 7.84003 59.0258C7.9765 59.1977 8.13826 59.3392 8.32023 59.4403C8.50725 59.5414 8.7145 59.6071 8.93691 59.6324C9.16437 59.6576 9.39689 59.6425 9.64458 59.5768C9.89226 59.5111 10.1147 59.4201 10.3017 59.2836C10.4887 59.1471 10.6404 59.0056 10.7566 58.8236C10.8678 58.6517 10.9436 58.4496 10.979 58.2423C11.0094 58.025 10.9993 57.8076 10.9487 57.5801C10.883 57.3173 10.7718 57.0949 10.6201 56.923C10.4685 56.7512 10.2916 56.6248 10.0995 56.5439L10.7415 55.3965C11.0852 55.5683 11.3834 55.816 11.6362 56.1345V56.1446H11.621Z" fill="white"/>
<path d="M11.0951 50.8519L8.65873 53.1872V53.2023L11.272 52.9799L11.3833 54.3245L5.70675 54.7997L5.59555 53.4551L7.91063 53.263V53.2428L5.42369 51.4029L5.2771 49.6842L8.09766 51.9134L10.9435 49.0625L11.0951 50.8519V50.8519Z" fill="white"/>
<path d="M11.0245 48.304L5.33789 47.93L5.59063 44.1035L6.74817 44.1793L6.58136 46.6814L7.65803 46.7522L7.81472 44.3866L8.91666 44.4573L8.75996 46.823L9.94278 46.8988L10.1146 44.2501L11.2873 44.3259L11.0245 48.299V48.304Z" fill="white"/>
<path d="M7.5114 39.9543L11.9444 40.8541L11.6715 42.2087L7.23339 41.309L6.91494 42.8861L5.76245 42.6535L6.67736 38.1396L7.82985 38.3722L7.5114 39.9493V39.9543Z" fill="white"/>
<path d="M9.88723 32.5485L10.9639 33.0236L11.8535 31.0017L12.8948 31.4617L12.0052 33.4836L14.0321 34.3732L13.4812 35.6167L8.26465 33.3269L9.77602 29.8896L10.8527 30.3648L9.88723 32.5586V32.5485Z" fill="white"/>
<path d="M16.8171 26.7868C16.994 27.0345 17.1154 27.3024 17.1659 27.5905C17.2215 27.8786 17.2215 28.1819 17.1558 28.5004C17.0901 28.8188 16.9637 29.1373 16.7615 29.4507C16.5644 29.7691 16.3369 30.0269 16.0842 30.224C15.8315 30.4161 15.5635 30.5526 15.2805 30.6234C15.0025 30.6941 14.7093 30.7042 14.406 30.6486C14.1078 30.593 13.8146 30.4768 13.5214 30.2999L10.5088 28.4245L11.2316 27.2619L14.1482 29.0766C14.2847 29.1575 14.4161 29.2232 14.5577 29.2586C14.6992 29.294 14.8357 29.3142 14.9721 29.294C15.1137 29.2839 15.24 29.2333 15.3715 29.1524C15.5029 29.0716 15.6141 28.9452 15.7152 28.7784C15.8163 28.6116 15.8769 28.4549 15.8921 28.3032C15.9073 28.1516 15.8921 28.0101 15.8466 27.8837C15.7961 27.7523 15.7304 27.636 15.6242 27.5298C15.5282 27.4237 15.4069 27.3327 15.2805 27.2518L12.3639 25.4372L13.0918 24.2695L16.1044 26.1448C16.3976 26.3268 16.6352 26.5391 16.8121 26.7868H16.8171Z" fill="white"/>
<path d="M18.5358 26.5283L14.1685 22.8686L16.6301 19.9268L17.5198 20.6698L15.9073 22.5906L16.7312 23.2882L18.2578 21.4735L19.1019 22.1812L17.5754 23.9958L18.4802 24.7541L20.1836 22.722L21.0834 23.4752L18.5206 26.5283H18.5257H18.5358Z" fill="white"/>
<path d="M21.8769 22.7068L18.01 18.5214L19.0311 17.5762L22.0841 20.882L23.7067 19.3858L24.5205 20.2653L21.8769 22.7068Z" fill="white"/>
<path d="M26.9318 13.1233L27.5232 14.1393L29.4339 13.0273L30.0051 14.0079L28.0944 15.12L29.2115 17.0357L28.0388 17.7181L25.1677 12.7948L28.4129 10.9043L29.0043 11.9203L26.9318 13.1284V13.1233Z" fill="white"/>
<path d="M36.369 10.5905C36.5358 11.0101 36.6167 11.4195 36.6066 11.8239C36.6016 12.2283 36.5156 12.6074 36.3539 12.9562C36.1921 13.3049 35.9647 13.6183 35.6614 13.8964C35.3581 14.1693 35.0042 14.3917 34.5898 14.5535C34.1753 14.7203 33.7658 14.8012 33.3615 14.8062C32.9571 14.8062 32.5729 14.7405 32.2191 14.5939C31.8652 14.4473 31.5468 14.235 31.2637 13.9418C30.9857 13.6487 30.7583 13.2999 30.5914 12.8803C30.4246 12.4557 30.3438 12.0463 30.3539 11.647C30.364 11.2477 30.4499 10.8736 30.6117 10.5349C30.7734 10.1963 31.0059 9.88793 31.3092 9.62003C31.6125 9.35213 31.9663 9.13477 32.3808 8.96796C32.7953 8.80116 33.2048 8.71523 33.6091 8.70512C34.0135 8.69501 34.3977 8.76072 34.7465 8.89214C35.0952 9.02862 35.4137 9.24092 35.6968 9.52399C35.9748 9.802 36.2022 10.1609 36.369 10.5855V10.5905ZM34.9992 11.1415C34.9082 10.909 34.7818 10.7119 34.6302 10.545C34.4786 10.3782 34.3067 10.2418 34.1197 10.1558C33.9326 10.0648 33.7254 10.0143 33.503 10.0092C33.2806 10.0042 33.0632 10.0396 32.8358 10.1356C32.6083 10.2266 32.4213 10.3479 32.2696 10.5046C32.118 10.6613 32.0017 10.8332 31.9259 11.0354C31.845 11.2274 31.8147 11.4448 31.8198 11.6723C31.8248 11.8997 31.8754 12.1322 31.9663 12.3547C32.0624 12.5922 32.1887 12.8045 32.3454 12.9764C32.5021 13.1482 32.674 13.2797 32.861 13.3757C33.0481 13.4718 33.2553 13.5172 33.4727 13.5274C33.69 13.5375 33.9074 13.497 34.1348 13.4111C34.3623 13.3201 34.5493 13.1988 34.701 13.0421C34.8526 12.8854 34.9689 12.7085 35.0447 12.5113C35.1205 12.3142 35.1559 12.0969 35.1508 11.8643C35.1508 11.6318 35.0952 11.3942 34.9992 11.1567V11.1466V11.1415Z" fill="white"/>
<path d="M40.984 12.4964L39.2806 10.5604L38.8206 10.6615L39.3159 12.8654L38.0017 13.1637L36.7532 7.60341L38.8762 7.12321C39.1441 7.06255 39.412 7.03223 39.6799 7.03223C39.9478 7.03223 40.1955 7.06761 40.428 7.1586C40.6605 7.24453 40.8576 7.381 41.0244 7.56803C41.1913 7.75506 41.3176 8.00779 41.3833 8.32624C41.4693 8.70535 41.4389 9.04402 41.2924 9.34731C41.1458 9.65059 40.9031 9.89828 40.5645 10.0853L42.556 12.1375L40.984 12.4914V12.4964ZM40.064 8.6548C40.0388 8.52338 39.9832 8.42229 39.9073 8.35152C39.8315 8.28075 39.7506 8.24031 39.6546 8.20999C39.5586 8.18471 39.4575 8.17966 39.3412 8.18471C39.23 8.19482 39.1239 8.20493 39.0228 8.23526L38.305 8.39701L38.5982 9.69103L39.2401 9.54444C39.3513 9.51917 39.4625 9.48378 39.5737 9.44335C39.6849 9.39785 39.786 9.34225 39.872 9.27654C39.9579 9.20577 40.0186 9.11984 40.059 9.01875C40.1045 8.91765 40.1045 8.79128 40.0691 8.64975H40.064V8.6548Z" fill="white"/>
<path d="M50.4717 11.8496L50.5425 9.46878L48.3184 9.40306L48.2476 11.7839L46.8677 11.7485L47.0345 6.05176L48.4144 6.08714L48.3487 8.24552L50.5728 8.31124L50.6385 6.15285L52.0185 6.18824L51.8517 11.885L50.4717 11.8496Z" fill="white"/>
<path d="M52.883 12.0768L53.6867 6.43066L55.0616 6.62274L54.2528 12.2689L52.8779 12.0768H52.883V12.0768Z" fill="white"/>
<path d="M59.2823 13.4314C58.8982 13.4263 58.4887 13.3657 58.0641 13.2545C57.6244 13.1382 57.2351 12.9613 56.9015 12.7187C56.5679 12.4811 56.3 12.2031 56.0978 11.8745C55.8956 11.551 55.7693 11.1921 55.7086 10.7979C55.6479 10.4036 55.6833 9.98911 55.7945 9.5544C55.9108 9.11464 56.0928 8.73553 56.3404 8.41708C56.5881 8.09863 56.8813 7.85095 57.2149 7.66898C57.5485 7.49206 57.9226 7.3758 58.3219 7.34042C58.7212 7.30503 59.1307 7.34042 59.5502 7.44657C59.9849 7.55777 60.3741 7.73469 60.7128 7.96215C61.0515 8.19467 61.3093 8.45246 61.4862 8.73553L60.3893 9.46847C60.2983 9.2865 60.1568 9.11969 59.9748 8.96299C59.7878 8.81135 59.5603 8.70015 59.2924 8.62938C59.0599 8.56872 58.8274 8.55356 58.6151 8.58389C58.3927 8.61422 58.1905 8.69004 58.0035 8.8063C57.8164 8.9175 57.6597 9.06914 57.5233 9.26628C57.3868 9.45331 57.2857 9.67572 57.22 9.9234C57.1543 10.1761 57.129 10.4188 57.1442 10.6513C57.1593 10.8838 57.22 11.091 57.3211 11.2882C57.4222 11.4752 57.5688 11.642 57.7558 11.7836C57.9428 11.9251 58.1703 12.0312 58.4382 12.102C58.5949 12.1475 58.7465 12.1728 58.8931 12.1829C59.0397 12.193 59.1812 12.193 59.3126 12.1728L59.5755 11.1719L58.5241 10.899L58.8021 9.82736L61.0768 10.4238L60.3135 13.3455C60.0051 13.4162 59.6614 13.4466 59.2773 13.4365L59.2823 13.4314Z" fill="white"/>
<path d="M64.5441 15.5191L65.5248 13.3456L63.4978 12.4307L62.5172 14.6042L61.2585 14.0381L63.5989 8.8418L64.8575 9.40793L63.9729 11.3742L65.9999 12.2891L66.8845 10.3228L68.1431 10.889L65.8028 16.0853L64.5441 15.5191V15.5191Z" fill="white"/>
<path d="M69.5132 18.4558L72.8544 13.8408L73.9765 14.6546L70.6353 19.2696L69.5132 18.4558Z" fill="white"/>
<path d="M75.3968 23.4855L78.2123 20.5942L78.1972 20.579L74.3353 22.4594L73.6327 21.7922L75.3867 17.8848L75.3716 17.8697L72.6016 20.8014L71.6614 19.9017L75.6091 15.7871L77.0245 17.1468L75.4322 20.6852L75.4524 20.7054L78.8796 18.9312L80.3202 20.3111L76.3724 24.4257L75.3968 23.4855H75.3918H75.3968Z" fill="white"/>
<path d="M82.797 26.5029C82.5291 26.7 82.2713 26.8163 82.0085 26.8516C81.7507 26.887 81.5081 26.8618 81.2705 26.7758C81.0329 26.6899 80.8055 26.5534 80.5982 26.3714C80.3859 26.1895 80.1888 25.9772 80.0169 25.7396L79.6125 25.1886L77.8838 26.4624L77.0649 25.3504L81.6547 21.9688L82.8981 23.657C83.0801 23.9098 83.2317 24.1625 83.3379 24.4153C83.4491 24.668 83.5098 24.9207 83.5199 25.1634C83.53 25.406 83.4744 25.6436 83.3682 25.866C83.2621 26.0884 83.07 26.3007 82.8071 26.4978H82.797V26.5029ZM81.9731 25.3959C82.0793 25.315 82.1551 25.2291 82.1905 25.1381C82.2309 25.042 82.241 24.946 82.2208 24.8399C82.2056 24.7388 82.1702 24.6326 82.1146 24.5315C82.059 24.4304 81.9984 24.3243 81.9226 24.2282L81.5687 23.743L80.487 24.5416L80.8307 25.0117C80.9066 25.1128 80.9874 25.2089 81.0784 25.2897C81.1643 25.3706 81.2553 25.4363 81.3564 25.4768C81.4525 25.5222 81.5536 25.5374 81.6597 25.5324C81.7608 25.5222 81.872 25.4768 81.9782 25.3959H81.9731Z" fill="white"/>
<path d="M81.6648 32.5338L82.4382 31.6088L81.3817 29.6678L80.1938 29.8346L79.4761 28.5203L85.6277 27.8936L86.2697 29.0663L82.3977 33.8733L81.6648 32.5237V32.5338ZM84.5966 29.1977L82.5342 29.4959L83.2166 30.7596L84.5966 29.2027V29.1977Z" fill="white"/>
<path d="M84.0102 38.1642C83.7221 37.871 83.5047 37.4969 83.343 37.042C83.1964 36.6275 83.1256 36.2181 83.1357 35.8188C83.1458 35.4194 83.2318 35.0403 83.3885 34.6966C83.5451 34.3529 83.7726 34.0395 84.0658 33.7716C84.364 33.5037 84.7178 33.2914 85.1374 33.1397C85.567 32.9881 85.9866 32.9224 86.3809 32.9477C86.7852 32.9729 87.1542 33.074 87.4929 33.2509C87.8316 33.4279 88.1298 33.6654 88.3876 33.9738C88.6454 34.2821 88.8476 34.641 88.9992 35.0504C89.1357 35.4295 89.2014 35.8289 89.2014 36.2434C89.2014 36.6579 89.1104 37.0269 88.9335 37.3453L87.7355 36.7792C87.8619 36.5972 87.9226 36.395 87.9377 36.1675C87.9478 35.9401 87.9175 35.7278 87.8417 35.5155C87.7608 35.288 87.6395 35.0959 87.4929 34.9342C87.3413 34.7724 87.1694 34.6562 86.9672 34.5652C86.7751 34.4793 86.5628 34.4338 86.3354 34.4287C86.1079 34.4236 85.8754 34.4641 85.6378 34.545C85.3952 34.6309 85.1829 34.7522 85.011 34.8937C84.8392 35.0403 84.6976 35.2071 84.6067 35.3942C84.5106 35.5761 84.455 35.7834 84.4398 35.9957C84.4247 36.213 84.4601 36.4304 84.5359 36.6528C84.6269 36.9106 84.7583 37.1178 84.9302 37.2745C85.102 37.4312 85.284 37.5374 85.4912 37.598L84.9655 38.8061C84.6117 38.6646 84.2882 38.4523 84.0001 38.1591H84.0102V38.1642Z" fill="white"/>
<path d="M89.3582 41.7785L84.915 42.6227L84.6572 41.268L89.1004 40.4239L88.7971 38.8367L89.9496 38.6143L90.8139 43.1383L89.6614 43.3607L89.3582 41.7735V41.7785Z" fill="white"/>
<path d="M85.4458 48.2539L91.193 48.3449L91.1728 49.7299L85.4255 49.6389L85.4458 48.2539Z" fill="white"/>
<path d="M87.786 56.473C87.2907 56.4275 86.8711 56.3011 86.5274 56.0838C86.1837 55.8664 85.9057 55.5985 85.6984 55.275C85.4912 54.9515 85.3497 54.5977 85.2738 54.2084C85.198 53.8192 85.1727 53.425 85.2081 53.0408L85.385 50.9229L91.0615 51.4031L90.8897 53.4603C90.8593 53.8597 90.7785 54.2539 90.647 54.633C90.5156 55.0172 90.3336 55.3508 90.091 55.6339C89.8484 55.922 89.535 56.1394 89.1559 56.2961C88.7768 56.4528 88.3219 56.5084 87.786 56.4629V56.473ZM87.9023 55.0475C88.2258 55.0728 88.4937 55.0475 88.7111 54.9565C88.9335 54.8706 89.1104 54.7442 89.2519 54.5774C89.3935 54.4157 89.4996 54.2236 89.5704 54.0063C89.6411 53.7889 89.6866 53.5665 89.7119 53.3289L89.7726 52.6465L86.4516 52.3685L86.396 53.0206C86.3758 53.2683 86.3859 53.5058 86.4213 53.7384C86.4617 53.9709 86.5325 54.1781 86.6487 54.3651C86.7599 54.5471 86.9217 54.7038 87.1289 54.8302C87.3362 54.9565 87.594 55.0324 87.9124 55.0526H87.9074L87.9023 55.0475Z" fill="white"/>
<path d="M84.5864 56.923L90.1113 58.3232L89.166 62.0435L88.0439 61.7554L88.6605 59.324L87.6142 59.0612L87.0329 61.356L85.9664 61.0881L86.5477 58.7933L85.4002 58.5001L84.7482 61.073L83.6108 60.7798L84.5915 56.918H84.5864V56.923Z" fill="white"/>
<path d="M81.4422 65.7486L82.6453 65.8143L83.5652 63.8076L82.7261 62.9634L83.3529 61.5986L87.5383 66.153L86.9822 67.3712L80.8154 67.1488L81.4523 65.7587V65.7486H81.4422ZM85.8752 66.0974L84.3993 64.6214L83.8028 65.9255L85.8803 66.0974H85.8752Z" fill="white"/>
<path d="M82.0033 72.9008C82.1903 72.8856 82.3824 72.8249 82.5593 72.7188C82.7362 72.6126 82.8778 72.4812 82.9789 72.3346C83.0294 72.2588 83.0749 72.1779 83.1153 72.092C83.1558 72.0061 83.176 71.9201 83.181 71.8292C83.181 71.7432 83.1709 71.6573 83.1356 71.5764C83.1002 71.4955 83.0395 71.4197 82.9485 71.3591C82.8677 71.3035 82.7918 71.2782 82.716 71.2731C82.6402 71.2681 82.5593 71.2883 82.4784 71.3287C82.3925 71.3692 82.3066 71.4197 82.2156 71.4854C82.1246 71.5511 82.0235 71.632 81.9072 71.718C81.7455 71.8443 81.5736 71.9707 81.3967 72.1021C81.2198 72.2335 81.0227 72.3346 80.8205 72.4054C80.6132 72.4762 80.406 72.5065 80.1836 72.4913C79.9612 72.4812 79.7337 72.3953 79.4961 72.2386C79.2282 72.0566 79.021 71.8494 78.8946 71.6118C78.7632 71.3793 78.6874 71.1316 78.6722 70.8789C78.657 70.6261 78.6874 70.3683 78.7733 70.1004C78.8592 69.8426 78.9755 69.595 79.1322 69.3624C79.3597 69.0238 79.6377 68.7306 79.9662 68.493C80.2948 68.2554 80.6385 68.1038 81.0024 68.0381L81.2602 69.3018C81.0378 69.322 80.8205 69.3928 80.5981 69.5242C80.3757 69.6506 80.1987 69.8022 80.0724 69.9943C80.0117 70.0802 79.9713 70.1661 79.9308 70.2571C79.8955 70.3481 79.8752 70.4391 79.8752 70.525C79.8752 70.611 79.8955 70.6969 79.9409 70.7778C79.9864 70.8586 80.0522 70.9294 80.1482 70.9951C80.2392 71.0558 80.3251 71.0811 80.4161 71.0811C80.5071 71.0811 80.6082 71.0558 80.7143 71.0052C80.8205 70.9547 80.9367 70.889 81.058 70.7879C81.1844 70.6918 81.3209 70.5857 81.4725 70.4593C81.6242 70.3431 81.7809 70.2319 81.9477 70.1308C82.1145 70.0297 82.2813 69.9589 82.4633 69.9134C82.6452 69.8679 82.8373 69.8629 83.0294 69.8932C83.2215 69.9235 83.4287 70.0094 83.6461 70.156C83.9089 70.3329 84.101 70.5402 84.2122 70.7727C84.3234 71.0052 84.3841 71.2479 84.3891 71.5057C84.3942 71.7634 84.3487 72.0162 84.2577 72.2689C84.1667 72.5217 84.0454 72.7643 83.8988 72.9867C83.7219 73.2546 83.4894 73.4922 83.2013 73.7095C82.9131 73.9269 82.6099 74.0735 82.2762 74.1493L81.9982 72.9058L82.0033 72.9008Z" fill="white"/>
<path d="M19.931 78.0519C19.7693 78.2187 19.5823 78.2945 19.3548 78.2945C19.1273 78.2945 18.9352 78.2086 18.7735 78.0468C18.6876 77.9659 18.6219 77.875 18.5814 77.7739C18.5359 77.6728 18.5107 77.5666 18.5056 77.4605C18.5005 77.3543 18.5107 77.2482 18.5511 77.1521C18.5814 77.051 18.6421 76.9651 18.723 76.8792C18.7988 76.7983 18.8898 76.7376 18.9858 76.7023C19.0869 76.6618 19.193 76.6416 19.2992 76.6416C19.4053 76.6416 19.5165 76.6618 19.6176 76.7073C19.7187 76.7528 19.8148 76.8084 19.9058 76.8893C20.0675 77.051 20.1585 77.2381 20.1686 77.4655C20.1787 77.693 20.1029 77.8851 19.9462 78.0468H19.9361L19.931 78.0519Z" fill="white"/>
<path d="M22.3674 83.147L25.2739 79.0273L26.295 79.7502L23.3885 83.8698L22.3674 83.147Z" fill="white"/>
<path d="M28.8527 87.0798L30.5713 83.9509L30.5561 83.9408L27.6901 86.448L26.9268 86.0335L27.4778 82.2778L27.4575 82.2677L25.7895 85.4218L24.7583 84.8658L27.1543 80.4277L28.7111 81.2668L28.2107 84.6687L28.236 84.6838L30.7532 82.3688L32.3303 83.223L29.9344 87.6611L28.8628 87.0849H28.8527V87.0798Z" fill="white"/>
<path d="M36.4247 86.3418C36.3286 86.6148 36.1871 86.8321 36.0152 86.9838C35.8434 87.1354 35.6412 87.2365 35.4289 87.2921C35.2065 87.3477 34.9739 87.3578 34.7212 87.3224C34.4685 87.2921 34.2208 87.2315 33.968 87.1455L33.3868 86.9332L32.7448 88.7226L31.5771 88.3031L33.2857 83.5566L35.0649 84.1986C35.3278 84.2946 35.5654 84.4109 35.7777 84.5423C35.99 84.6788 36.1618 84.8355 36.2882 85.0074C36.4196 85.1792 36.5005 85.3814 36.5308 85.5988C36.5611 85.8212 36.5308 86.0689 36.4297 86.3368L36.4247 86.3418ZM35.257 85.9273C35.2924 85.8161 35.3076 85.715 35.2873 85.624C35.2671 85.5381 35.2267 85.4572 35.161 85.3915C35.0953 85.3208 35.0194 85.2652 34.9285 85.2197C34.8375 85.1691 34.7364 85.1287 34.6302 85.0882L34.1197 84.9063L33.7153 86.0234L34.2056 86.2003C34.3118 86.2357 34.423 86.271 34.5291 86.2862C34.6353 86.3014 34.7414 86.3064 34.8324 86.2862C34.9285 86.271 35.0093 86.2306 35.0852 86.1801C35.161 86.1245 35.2166 86.0385 35.252 85.9273H35.257Z" fill="white"/>
<path d="M40.9334 89.8749C40.7767 90.0973 40.5897 90.2742 40.3622 90.4006C40.1348 90.5371 39.877 90.618 39.5838 90.6584C39.2957 90.6988 38.9873 90.6786 38.6638 90.6079C38.3353 90.5371 38.0421 90.4208 37.7995 90.2641C37.5568 90.1074 37.3648 89.9255 37.2131 89.7081C37.0665 89.4908 36.9705 89.2532 36.925 88.9903C36.8795 88.7275 36.8896 88.4444 36.9503 88.1512L37.6226 85.083L38.8306 85.3459L38.1786 88.3181C38.1533 88.4545 38.1432 88.5809 38.1483 88.7123C38.1584 88.8437 38.1836 88.96 38.2392 89.0712C38.2948 89.1824 38.3757 89.2835 38.4819 89.3644C38.588 89.4453 38.7295 89.5059 38.9014 89.5413C39.0733 89.5817 39.2249 89.5868 39.3563 89.5514C39.4928 89.5261 39.604 89.4705 39.7001 89.3897C39.7961 89.3088 39.8719 89.2178 39.9326 89.1015C39.9932 88.9903 40.0337 88.864 40.0691 88.7275L40.7211 85.7553L41.9343 86.0181L41.262 89.0864C41.1963 89.3846 41.0851 89.6424 40.9334 89.8648V89.8749Z" fill="white"/>
<path d="M42.4499 91.1589L42.9452 86.1445L44.1887 86.2709L43.7944 90.2338L45.7709 90.4259L45.6698 91.4824L42.4448 91.1639L42.4499 91.1589Z" fill="white"/>
<path d="M49.5064 87.7624C49.4002 87.6309 49.2587 87.5298 49.0869 87.449C48.915 87.3681 48.7482 87.3378 48.5864 87.3428C48.5056 87.3428 48.4196 87.3529 48.3387 87.3681C48.2579 87.3833 48.177 87.4136 48.1113 87.454C48.0456 87.4995 47.9849 87.5501 47.9445 87.6158C47.899 87.6815 47.8788 87.7624 47.8788 87.8635C47.8788 87.9494 47.899 88.0202 47.9394 88.0758C47.9748 88.1314 48.0304 88.1819 48.1012 88.2223C48.1719 88.2678 48.2579 88.3032 48.3539 88.3335C48.45 88.3639 48.5612 88.4043 48.6825 88.4397C48.8543 88.4953 49.0363 88.5509 49.2334 88.6166C49.4255 88.6823 49.5974 88.7733 49.7591 88.8795C49.9158 88.9907 50.0473 89.1271 50.1534 89.294C50.2596 89.4608 50.3101 89.6731 50.3152 89.9207C50.3152 90.2139 50.2646 90.4616 50.1635 90.6739C50.0574 90.8862 49.9158 91.0631 49.7339 91.2047C49.5519 91.3462 49.3396 91.4523 49.1071 91.5231C48.8746 91.5939 48.6269 91.6293 48.3741 91.6343C48.0051 91.6394 47.6462 91.5787 47.3025 91.4624C46.9588 91.3462 46.6656 91.1642 46.4331 90.9368L47.2318 90.1128C47.3632 90.2645 47.53 90.3858 47.7322 90.4869C47.9394 90.5829 48.1467 90.6335 48.3489 90.6335C48.4398 90.6335 48.5308 90.6234 48.6168 90.6031C48.7027 90.5829 48.7785 90.5475 48.8442 90.5071C48.9099 90.4616 48.9605 90.406 48.9959 90.3352C49.0363 90.2645 49.0515 90.1785 49.0515 90.0774C49.0515 89.9814 49.0262 89.9056 48.9756 89.8348C48.9251 89.7691 48.8594 89.7084 48.7633 89.6579C48.6724 89.6023 48.5561 89.5568 48.4297 89.5113C48.2933 89.4658 48.1416 89.4203 47.9698 89.3698C47.8029 89.3192 47.6412 89.2636 47.4845 89.1929C47.3278 89.1221 47.1812 89.0362 47.0599 88.925C46.9335 88.8188 46.8324 88.6823 46.7566 88.5256C46.6808 88.3689 46.6404 88.1768 46.6302 87.9494C46.6302 87.6714 46.6808 87.4287 46.792 87.2265C46.9032 87.0294 47.0548 86.8626 47.2419 86.7312C47.4289 86.5998 47.6412 86.5037 47.8788 86.438C48.1163 86.3723 48.3539 86.342 48.5965 86.3369C48.8897 86.3369 49.1829 86.3824 49.4912 86.4784C49.7945 86.5745 50.0624 86.7261 50.2949 86.9283L49.5165 87.7573V87.7674L49.5064 87.7624Z" fill="white"/>
<path d="M55.759 89.8397C55.6882 90.0975 55.5669 90.33 55.4001 90.5322C55.2333 90.7293 55.0159 90.8962 54.7581 91.0326C54.5003 91.1691 54.2021 91.255 53.8735 91.2955C53.5399 91.341 53.2265 91.3258 52.9485 91.2652C52.6705 91.1994 52.4178 91.0933 52.2105 90.9366C51.9982 90.785 51.8264 90.5929 51.7 90.3553C51.5686 90.1177 51.4826 89.8549 51.4472 89.5516L51.053 86.4379L52.2762 86.2812L52.6604 89.2938C52.6756 89.4303 52.716 89.5566 52.7615 89.678C52.8171 89.7942 52.8777 89.9004 52.9637 89.9863C53.0496 90.0722 53.1558 90.1379 53.2872 90.1784C53.4186 90.2239 53.5652 90.2289 53.7421 90.2036C53.914 90.1834 54.0606 90.1329 54.1718 90.0621C54.283 89.9913 54.379 89.9004 54.4397 89.7942C54.5054 89.6881 54.5458 89.5718 54.566 89.4454C54.5812 89.3191 54.5812 89.1876 54.566 89.0512L54.1819 86.0385L55.4152 85.8818L55.8095 88.9956C55.8499 89.2988 55.8297 89.5769 55.7539 89.8347H55.759V89.8397Z" fill="white"/>
<path d="M62.2747 89.2837L61.3092 85.8515H61.289L60.9958 89.6577L60.1618 89.9004L57.9175 86.8372H57.8973L58.9234 90.2592L57.8012 90.5827L56.396 85.7403L58.0944 85.25L60.1214 88.025H60.1466L60.3185 84.603L62.0422 84.1025L63.4474 88.945L62.2797 89.2837H62.2747V89.2837Z" fill="white"/>
<path d="M69.2149 86.2456L68.1129 86.8219L64.054 83.2583L65.2873 82.6113L67.9967 85.2246L68.0219 85.2145L67.4204 81.4992L68.6386 80.8623L69.2149 86.2456H69.2098H69.2149Z" fill="white"/>
<path d="M74.775 82.601C74.5879 82.9144 74.3099 83.1924 73.9561 83.4452C73.6275 83.6726 73.2939 83.8293 72.9452 83.9203C72.5964 84.0062 72.2527 84.0265 71.914 83.9759C71.5753 83.9203 71.2569 83.804 70.9536 83.612C70.6503 83.4249 70.3874 83.1722 70.16 82.8487C69.9275 82.5201 69.7758 82.1764 69.705 81.8226C69.6343 81.4738 69.6343 81.1301 69.7101 80.7965C69.7859 80.4629 69.9275 80.1495 70.1297 79.8512C70.3369 79.553 70.6048 79.2952 70.9232 79.0677C71.2215 78.8554 71.55 78.7088 71.9089 78.6078C72.2678 78.5117 72.6115 78.5016 72.9199 78.5673L72.7025 79.7249C72.5206 79.6591 72.3234 79.6541 72.1263 79.7046C71.9291 79.7501 71.7472 79.831 71.5854 79.9422C71.4085 80.0686 71.267 80.2101 71.1608 80.382C71.0597 80.5488 70.989 80.7257 70.9586 80.9178C70.9334 81.1048 70.9435 81.2969 70.9839 81.494C71.0344 81.6861 71.1204 81.8782 71.2468 82.0602C71.3782 82.2472 71.5248 82.3988 71.6966 82.5151C71.8634 82.6263 72.0403 82.7021 72.2274 82.7425C72.4093 82.783 72.5913 82.783 72.7885 82.7425C72.9755 82.7072 73.1625 82.6263 73.3394 82.4999C73.5467 82.3584 73.6882 82.1966 73.7893 82.0147C73.8853 81.8327 73.9359 81.6507 73.9409 81.4586L75.1035 81.6153C75.0682 81.954 74.9468 82.2826 74.7649 82.596H74.7699L74.775 82.601Z" fill="white"/>
<path d="M78.1213 76.5298C78.2831 76.6916 78.3589 76.8836 78.3538 77.1111C78.3437 77.3386 78.2578 77.5306 78.096 77.6924C78.0152 77.7733 77.9191 77.839 77.818 77.8794C77.7169 77.9249 77.6108 77.9502 77.5046 77.9502C77.3985 77.9502 77.2923 77.9401 77.1963 77.8996C77.1003 77.8643 77.0093 77.8036 76.9284 77.7227C76.8526 77.6469 76.7919 77.5559 76.7565 77.4548C76.7161 77.3537 76.7009 77.2476 76.7009 77.1414C76.7009 77.0353 76.7262 76.9241 76.7717 76.823C76.8172 76.7219 76.8778 76.6258 76.9587 76.545C77.1205 76.3832 77.3125 76.2973 77.54 76.2922C77.7675 76.2872 77.9596 76.363 78.1213 76.5247V76.5298Z" fill="white"/>
<path d="M47.9999 14.9629C29.6056 14.9629 14.6941 29.8744 14.6941 48.2687C14.6941 54.3546 16.3268 60.0564 19.1726 64.9696C24.935 74.9022 35.6916 81.5796 47.9999 81.5796C60.3082 81.5796 70.7817 75.0741 76.5997 65.3538C79.5922 60.3597 81.3057 54.5164 81.3057 48.2738C81.3057 29.8795 66.3942 14.9679 47.9948 14.9679H47.9999V14.9629ZM75.5787 64.7371C69.9729 74.1137 59.7168 80.3866 47.9999 80.3866C36.283 80.3866 25.764 73.9469 20.1987 64.3681C17.4489 59.6369 15.8769 54.1322 15.8769 48.2636C15.8769 30.5214 30.2577 16.1457 47.9948 16.1457C65.732 16.1457 80.1128 30.5265 80.1128 48.2636C80.1128 54.2839 78.4599 59.9199 75.5736 64.7371H75.5787Z" fill="#00FBCE"/>
<path d="M69.9074 43.9528H69.6345C69.2756 32.2106 59.6513 22.8037 47.8232 22.8037C43.6328 22.8037 39.7204 23.9865 36.3944 26.0337C34.3017 27.3227 32.4415 28.9503 30.8998 30.8408C27.963 34.4347 26.1534 38.984 26.0068 43.9528H25.6125C24.8948 43.9528 24.3135 44.5341 24.3135 45.2519V45.7018C24.3135 46.4195 24.8948 47.0008 25.6125 47.0008H25.9967V46.647C25.9967 38.1601 35.7726 31.2755 47.8282 31.2755C59.8838 31.2755 69.6597 38.1601 69.6597 46.647V47.0008H69.9175C70.6353 47.0008 71.2166 46.4195 71.2166 45.7018V45.2519C71.2166 44.5341 70.6353 43.9528 69.9175 43.9528H69.9074V43.9528Z" fill="#00FBCE"/>
<path d="M69.5889 47.0004C68.8458 39.7266 60.92 33.858 50.775 32.8926C52.9739 34.0248 55.0463 36.3905 56.9115 39.7721C57.604 41.0156 58.2611 42.4107 58.8879 43.917C59.3378 43.5379 59.8332 43.3509 60.3235 43.4368C61.5872 43.6542 62.3151 45.5497 61.9511 47.6727C61.7944 48.5775 61.4659 49.3762 61.0463 49.9777C61.8601 52.6567 62.5981 55.5834 63.2451 58.7224C63.5686 60.2944 63.2755 61.9423 62.4263 63.297C59.4187 68.099 54.0758 71.2936 47.9949 71.2936C41.6108 71.2936 36.0455 67.7805 33.1339 62.5741C32.401 61.27 32.1887 59.7384 32.497 58.2725C33.1289 55.27 33.8416 52.4646 34.6251 49.8917C34.2308 49.3003 33.9225 48.532 33.7809 47.6727C33.4221 45.5497 34.1499 43.6491 35.4086 43.4368C35.8787 43.3559 36.3538 43.5177 36.7835 43.8614C37.3496 42.5017 37.941 41.2532 38.5577 40.1057C40.4734 36.5421 42.6116 34.0552 44.8863 32.8926C34.7414 33.858 26.8104 39.7266 26.0674 47.0004C26.31 50.5337 27.3917 53.8294 29.1205 56.7005C28.9941 57.5851 28.9284 58.4899 28.9284 59.4099C28.9284 61.8008 29.3681 64.0956 30.1718 66.2085C32.9115 73.3964 39.8719 78.5017 48.0151 78.5017C56.1584 78.5017 62.6992 73.6997 65.6007 66.8505C66.5712 64.5657 67.112 62.0484 67.112 59.4048C67.112 58.3079 67.0211 57.2363 66.8441 56.19C68.3959 53.4402 69.3766 50.3214 69.604 46.9954H69.599L69.5889 47.0004ZM30.6571 58.9499C30.829 59.6272 31.0362 60.2944 31.2839 60.9313C33.8517 67.6592 40.3622 72.441 47.9899 72.441C55.6175 72.441 61.7439 67.9423 64.4532 61.5328C64.8879 60.5017 65.2317 59.425 65.4642 58.313C65.5703 58.1664 65.6765 58.0147 65.7776 57.8732C65.6007 59.703 65.1407 61.4419 64.4583 63.0644C62.7902 66.992 59.7624 70.2018 55.9612 72.0973V73.4419C55.9612 73.7047 55.7439 73.917 55.4861 73.917H55.3193C55.0564 73.917 54.8441 73.6997 54.8441 73.4419V72.6129C52.7312 73.4924 50.4162 73.9777 47.9949 73.9777C45.5737 73.9777 43.2485 73.4924 41.1407 72.6129V73.4419C41.1407 73.7047 40.9233 73.917 40.6655 73.917H40.4987C40.2359 73.917 40.0236 73.6997 40.0236 73.4419V72.0973C36.0303 70.1007 32.8863 66.6634 31.2839 62.4579C30.7986 61.1841 30.4549 59.8395 30.2679 58.4444C30.3943 58.6112 30.5257 58.778 30.6571 58.9448H30.652L30.6571 58.9499ZM50.5779 74.9684C50.5779 75.3071 50.305 75.5851 49.9612 75.5851C49.6175 75.5851 49.3446 75.3121 49.3446 74.9684C49.3446 74.6247 49.6175 74.3517 49.9612 74.3517C50.305 74.3517 50.5779 74.6247 50.5779 74.9684ZM48.6217 75.1554C48.6217 75.4941 48.3488 75.7721 48.005 75.7721C47.6613 75.7721 47.3884 75.4992 47.3884 75.1554C47.3884 74.8117 47.6613 74.5387 48.005 74.5387C48.3488 74.5387 48.6217 74.8117 48.6217 75.1554ZM46.6655 74.9684C46.6655 75.3071 46.3926 75.5851 46.0488 75.5851C45.7051 75.5851 45.4322 75.3121 45.4322 74.9684C45.4322 74.6247 45.7051 74.3517 46.0488 74.3517C46.3926 74.3517 46.6655 74.6247 46.6655 74.9684ZM64.984 66.0922C62.1786 72.7089 55.6327 77.3492 47.9899 77.3492C40.3471 77.3492 33.3968 72.4157 30.7481 65.4756C29.9646 63.4334 29.54 61.2144 29.54 58.9044C29.54 58.4292 29.5602 57.9591 29.5956 57.4992C29.7624 57.7519 29.9343 57.9996 30.1112 58.2422V58.3332C30.1112 60.5775 30.5257 62.7207 31.2788 64.7022C33.8467 71.4301 40.3572 76.2119 47.9848 76.2119C55.6125 76.2119 61.7388 71.7182 64.4482 65.3037C65.358 63.1655 65.8585 60.81 65.8585 58.3332C65.8585 58.1462 65.8585 57.9591 65.8483 57.7772C66.0152 57.5345 66.1769 57.2869 66.3336 57.0392C66.3943 57.6558 66.4246 58.2776 66.4246 58.9094C66.4246 61.457 65.909 63.8884 64.9688 66.1023H64.9739L64.984 66.0922Z" fill="#00FBCE"/>
<path d="M67.4204 57.6909C67.4811 58.3329 67.5114 58.985 67.5114 59.6421C67.5114 62.3969 66.9604 65.0254 65.9697 67.4112C63.0026 74.5587 56.0775 79.5679 48 79.5679C39.9225 79.5679 32.5679 74.2352 29.7625 66.739C28.9385 64.5351 28.4836 62.1391 28.4836 59.637C28.4836 58.9749 28.519 58.3177 28.5797 57.6758C24.0708 57.8224 20.3303 60.9866 19.3193 65.2175C25.1222 75.0086 35.7877 81.5747 47.995 81.5747C60.2022 81.5747 70.6201 75.1602 76.4634 65.5511C75.5889 61.2444 71.9091 57.9538 67.4103 57.6808V57.6909H67.4204Z" fill="#00FBCE"/>
<path d="M54.2377 52.1008C54.2377 52.1008 54.2326 52.1008 54.2225 52.1058C54.2073 52.1058 54.1618 52.1109 54.1163 52.1058C54.0203 52.1058 53.8737 52.0654 53.7019 52.0452C53.3733 51.9946 53.0346 51.9845 52.6909 52.025C52.3522 52.0654 51.9984 52.1614 51.6901 52.3232C51.3716 52.4849 51.0885 52.7124 50.8611 53.0005L51.4879 53.5009C51.6395 53.3291 51.8367 53.1825 52.0591 53.0865C52.2815 52.9904 52.5241 52.9348 52.7768 52.9196C53.0296 52.9045 53.2874 52.9247 53.5502 52.9803C53.6766 53.0005 53.8181 53.046 54.0203 53.0713C54.1163 53.0814 54.2326 53.0915 54.359 53.0713C54.4904 53.0561 54.6319 53.0106 54.7634 52.9348L54.2427 52.0957H54.2528L54.2377 52.1008Z" fill="white"/>
<path d="M52.7717 48.9461H46.4734C45.8517 48.9461 45.2856 48.845 44.7902 48.6377C44.1937 48.39 43.5619 48.2637 42.9098 48.2637C40.1701 48.2637 37.946 50.4878 37.946 53.2274C37.946 54.9107 38.7851 56.4675 40.2005 57.3825L41.0598 56.0733C40.0943 55.4414 39.5181 54.3799 39.5181 53.2274C39.5181 51.3572 41.0446 49.8306 42.9149 49.8306C43.3647 49.8306 43.7944 49.9166 44.2038 50.0834C44.8862 50.3614 45.6546 50.508 46.4785 50.508H52.7767C54.3033 50.508 55.5619 51.706 55.5922 53.1769C55.6074 54.1019 55.1626 54.9612 54.3942 55.4768L55.2738 56.7759C56.4818 55.9621 57.1895 54.6023 57.1592 53.1466C57.1137 50.8264 55.1524 48.936 52.7818 48.936H52.7767L52.7717 48.9461Z" fill="white"/>
<path d="M53.6361 59.5364C53.1508 58.3688 52.1045 57.3932 50.7448 56.8018C51.0885 56.4429 51.3058 55.9526 51.3058 55.4067C51.3058 54.2896 50.401 53.3848 49.2839 53.3848H46.1095C44.9924 53.3848 44.0876 54.2896 44.0876 55.4067C44.0876 55.9627 44.31 56.4631 44.674 56.8321C42.8037 57.6662 41.54 59.2432 41.54 61.0478V61.2399C41.6108 61.346 41.7574 61.4825 42.0961 61.6089C44.3859 62.453 50.7043 61.068 53.626 59.5364H53.631H53.6361ZM45.7709 55.0124C46.0843 54.5474 46.7111 54.426 47.1761 54.7394C47.4086 54.8911 47.5956 55.3157 47.7372 55.71C47.8787 55.3157 48.0657 54.8961 48.2983 54.7394C48.7633 54.426 49.3901 54.5524 49.7035 55.0124C50.0169 55.4774 49.8905 56.1093 49.4305 56.4176C49.0817 56.6552 48.6015 56.6906 47.7422 56.9231C46.9587 56.6956 46.4078 56.6552 46.0539 56.4176C45.5889 56.1093 45.4676 55.4774 45.781 55.0124H45.7709V55.0124Z" fill="white"/>
<path d="M44.0574 63.4389C43.4104 63.4389 42.7886 63.3884 42.2275 63.2721C43.2587 64.834 45.3362 65.8955 47.7372 65.8955C51.1239 65.8955 53.8788 63.7725 53.9344 61.1289C52.4735 61.8315 50.6134 62.4078 49.0464 62.7717C48.0152 63.0143 45.958 63.4288 44.0574 63.4288H44.0523L44.0574 63.4389Z" fill="white"/>
<path d="M42.748 51.8779C42.0909 51.8779 41.55 52.4137 41.55 53.0759C41.55 53.7381 42.0859 54.2739 42.748 54.2739C43.4102 54.2739 43.946 53.7381 43.946 53.0759C43.946 52.4137 43.4102 51.8779 42.748 51.8779ZM42.748 53.6572C42.4245 53.6572 42.1667 53.3994 42.1667 53.0759C42.1667 52.7524 42.4245 52.4946 42.748 52.4946C43.0715 52.4946 43.3293 52.7524 43.3293 53.0759C43.3293 53.3994 43.0715 53.6572 42.748 53.6572Z" fill="white"/>
</g>
<defs>
<clipPath id="clip0_277_7818">
<rect width="96" height="96" fill="white" transform="translate(0 0.769531)"/>
</clipPath>
</defs>
</svg>
